<svg width="176" height="60" viewBox="0 0 176 60" fill="none" xmlns="http://www.w3.org/2000/svg">
<path d="M2.8 33.316H5.812V34H1.96V25.612H2.8V33.316ZM7.43078 26.212C7.26278 26.212 7.11878 26.152 6.99878 26.032C6.87878 25.912 6.81878 25.764 6.81878 25.588C6.81878 25.412 6.87878 25.268 6.99878 25.156C7.11878 25.036 7.26278 24.976 7.43078 24.976C7.59878 24.976 7.74278 25.036 7.86278 25.156C7.98278 25.268 8.04278 25.412 8.04278 25.588C8.04278 25.764 7.98278 25.912 7.86278 26.032C7.74278 26.152 7.59878 26.212 7.43078 26.212ZM7.85078 27.448V34H7.01078V27.448H7.85078ZM12.333 28.156H10.809V34H9.96897V28.156H9.05697V27.448H9.96897V26.992C9.96897 26.28 10.149 25.756 10.509 25.42C10.877 25.084 11.469 24.916 12.285 24.916V25.636C11.741 25.636 11.357 25.74 11.133 25.948C10.917 26.156 10.809 26.504 10.809 26.992V27.448H12.333V28.156ZM19.5833 30.388C19.5833 30.676 19.5753 30.896 19.5593 31.048H14.1233C14.1473 31.544 14.2673 31.968 14.4833 32.32C14.6993 32.672 14.9833 32.94 15.3353 33.124C15.6873 33.3 16.0713 33.388 16.4873 33.388C17.0313 33.388 17.4873 33.256 17.8553 32.992C18.2313 32.728 18.4793 32.372 18.5993 31.924H19.4873C19.3273 32.564 18.9833 33.088 18.4553 33.496C17.9353 33.896 17.2793 34.096 16.4873 34.096C15.8713 34.096 15.3193 33.96 14.8313 33.688C14.3433 33.408 13.9593 33.016 13.6793 32.512C13.4073 32 13.2713 31.404 13.2713 30.724C13.2713 30.044 13.4073 29.448 13.6793 28.936C13.9513 28.424 14.3313 28.032 14.8193 27.76C15.3073 27.488 15.8633 27.352 16.4873 27.352C17.1113 27.352 17.6553 27.488 18.1193 27.76C18.5913 28.032 18.9513 28.4 19.1993 28.864C19.4553 29.32 19.5833 29.828 19.5833 30.388ZM18.7313 30.364C18.7393 29.876 18.6393 29.46 18.4313 29.116C18.2313 28.772 17.9553 28.512 17.6033 28.336C17.2513 28.16 16.8673 28.072 16.4513 28.072C15.8273 28.072 15.2953 28.272 14.8553 28.672C14.4153 29.072 14.1713 29.636 14.1233 30.364H18.7313ZM25.2531 25.12V34H24.4131V25.12H25.2531ZM33.0833 30.388C33.0833 30.676 33.0753 30.896 33.0593 31.048H27.6233C27.6473 31.544 27.7673 31.968 27.9833 32.32C28.1993 32.672 28.4833 32.94 28.8353 33.124C29.1873 33.3 29.5713 33.388 29.9873 33.388C30.5313 33.388 30.9873 33.256 31.3553 32.992C31.7313 32.728 31.9793 32.372 32.0993 31.924H32.9873C32.8273 32.564 32.4833 33.088 31.9553 33.496C31.4353 33.896 30.7793 34.096 29.9873 34.096C29.3713 34.096 28.8193 33.96 28.3313 33.688C27.8433 33.408 27.4593 33.016 27.1793 32.512C26.9073 32 26.7713 31.404 26.7713 30.724C26.7713 30.044 26.9073 29.448 27.1793 28.936C27.4513 28.424 27.8313 28.032 28.3193 27.76C28.8073 27.488 29.3633 27.352 29.9873 27.352C30.6113 27.352 31.1553 27.488 31.6193 27.76C32.0913 28.032 32.4513 28.4 32.6993 28.864C32.9553 29.32 33.0833 29.828 33.0833 30.388ZM32.2313 30.364C32.2393 29.876 32.1393 29.46 31.9313 29.116C31.7313 28.772 31.4553 28.512 31.1033 28.336C30.7513 28.16 30.3673 28.072 29.9513 28.072C29.3273 28.072 28.7953 28.272 28.3553 28.672C27.9153 29.072 27.6713 29.636 27.6233 30.364H32.2313ZM36.8762 34.096C36.1242 34.096 35.5082 33.924 35.0282 33.58C34.5562 33.228 34.2922 32.752 34.2362 32.152H35.1002C35.1402 32.52 35.3122 32.82 35.6162 33.052C35.9282 33.276 36.3442 33.388 36.8642 33.388C37.3202 33.388 37.6762 33.28 37.9322 33.064C38.1962 32.848 38.3282 32.58 38.3282 32.26C38.3282 32.036 38.2562 31.852 38.1122 31.708C37.9682 31.564 37.7842 31.452 37.5602 31.372C37.3442 31.284 37.0482 31.192 36.6722 31.096C36.1842 30.968 35.7882 30.84 35.4842 30.712C35.1802 30.584 34.9202 30.396 34.7042 30.148C34.4962 29.892 34.3922 29.552 34.3922 29.128C34.3922 28.808 34.4882 28.512 34.6802 28.24C34.8722 27.968 35.1442 27.752 35.4962 27.592C35.8482 27.432 36.2482 27.352 36.6962 27.352C37.4002 27.352 37.9682 27.532 38.4002 27.892C38.8322 28.244 39.0642 28.732 39.0962 29.356H38.2562C38.2322 28.972 38.0802 28.664 37.8002 28.432C37.5282 28.192 37.1522 28.072 36.6722 28.072C36.2482 28.072 35.9042 28.172 35.6402 28.372C35.3762 28.572 35.2442 28.82 35.2442 29.116C35.2442 29.372 35.3202 29.584 35.4722 29.752C35.6322 29.912 35.8282 30.04 36.0602 30.136C36.2922 30.224 36.6042 30.324 36.9962 30.436C37.4682 30.564 37.8442 30.688 38.1242 30.808C38.4042 30.928 38.6442 31.104 38.8442 31.336C39.0442 31.568 39.1482 31.876 39.1562 32.26C39.1562 32.612 39.0602 32.928 38.8682 33.208C38.6762 33.48 38.4082 33.696 38.0642 33.856C37.7202 34.016 37.3242 34.096 36.8762 34.096ZM42.9933 34.096C42.2413 34.096 41.6253 33.924 41.1453 33.58C40.6733 33.228 40.4093 32.752 40.3533 32.152H41.2173C41.2573 32.52 41.4293 32.82 41.7333 33.052C42.0453 33.276 42.4613 33.388 42.9813 33.388C43.4373 33.388 43.7933 33.28 44.0493 33.064C44.3133 32.848 44.4453 32.58 44.4453 32.26C44.4453 32.036 44.3733 31.852 44.2293 31.708C44.0853 31.564 43.9013 31.452 43.6773 31.372C43.4613 31.284 43.1653 31.192 42.7893 31.096C42.3013 30.968 41.9053 30.84 41.6013 30.712C41.2973 30.584 41.0373 30.396 40.8213 30.148C40.6133 29.892 40.5093 29.552 40.5093 29.128C40.5093 28.808 40.6053 28.512 40.7973 28.24C40.9893 27.968 41.2613 27.752 41.6133 27.592C41.9653 27.432 42.3653 27.352 42.8133 27.352C43.5173 27.352 44.0853 27.532 44.5173 27.892C44.9493 28.244 45.1813 28.732 45.2133 29.356H44.3733C44.3493 28.972 44.1973 28.664 43.9173 28.432C43.6453 28.192 43.2693 28.072 42.7893 28.072C42.3653 28.072 42.0213 28.172 41.7573 28.372C41.4933 28.572 41.3613 28.82 41.3613 29.116C41.3613 29.372 41.4373 29.584 41.5893 29.752C41.7493 29.912 41.9453 30.04 42.1773 30.136C42.4093 30.224 42.7213 30.324 43.1133 30.436C43.5853 30.564 43.9613 30.688 44.2413 30.808C44.5213 30.928 44.7613 31.104 44.9613 31.336C45.1613 31.568 45.2653 31.876 45.2733 32.26C45.2733 32.612 45.1773 32.928 44.9853 33.208C44.7933 33.48 44.5253 33.696 44.1813 33.856C43.8373 34.016 43.4413 34.096 42.9933 34.096ZM49.7225 34.096C49.1065 34.096 48.5505 33.96 48.0545 33.688C47.5665 33.408 47.1785 33.016 46.8905 32.512C46.6105 32 46.4705 31.404 46.4705 30.724C46.4705 30.044 46.6145 29.452 46.9025 28.948C47.1905 28.436 47.5825 28.044 48.0785 27.772C48.5745 27.492 49.1305 27.352 49.7465 27.352C50.3625 27.352 50.9185 27.492 51.4145 27.772C51.9185 28.044 52.3105 28.436 52.5905 28.948C52.8785 29.452 53.0225 30.044 53.0225 30.724C53.0225 31.396 52.8785 31.988 52.5905 32.5C52.3025 33.012 51.9065 33.408 51.4025 33.688C50.8985 33.96 50.3385 34.096 49.7225 34.096ZM49.7225 33.364C50.1545 33.364 50.5545 33.268 50.9225 33.076C51.2905 32.876 51.5865 32.58 51.8105 32.188C52.0425 31.788 52.1585 31.3 52.1585 30.724C52.1585 30.148 52.0465 29.664 51.8225 29.272C51.5985 28.872 51.3025 28.576 50.9345 28.384C50.5665 28.184 50.1665 28.084 49.7345 28.084C49.3025 28.084 48.9025 28.184 48.5345 28.384C48.1665 28.576 47.8705 28.872 47.6465 29.272C47.4305 29.664 47.3225 30.148 47.3225 30.724C47.3225 31.3 47.4305 31.788 47.6465 32.188C47.8705 32.58 48.1625 32.876 48.5225 33.076C48.8905 33.268 49.2905 33.364 49.7225 33.364ZM57.6258 27.328C58.4098 27.328 59.0498 27.572 59.5458 28.06C60.0418 28.54 60.2898 29.24 60.2898 30.16V34H59.4618V30.256C59.4618 29.544 59.2818 29 58.9218 28.624C58.5698 28.248 58.0858 28.06 57.4698 28.06C56.8378 28.06 56.3338 28.26 55.9578 28.66C55.5818 29.06 55.3938 29.648 55.3938 30.424V34H54.5538V27.448H55.3938V28.564C55.6018 28.164 55.9018 27.86 56.2938 27.652C56.6858 27.436 57.1298 27.328 57.6258 27.328ZM64.4035 34.096C63.6515 34.096 63.0355 33.924 62.5555 33.58C62.0835 33.228 61.8195 32.752 61.7635 32.152H62.6275C62.6675 32.52 62.8395 32.82 63.1435 33.052C63.4555 33.276 63.8715 33.388 64.3915 33.388C64.8475 33.388 65.2035 33.28 65.4595 33.064C65.7235 32.848 65.8555 32.58 65.8555 32.26C65.8555 32.036 65.7835 31.852 65.6395 31.708C65.4955 31.564 65.3115 31.452 65.0875 31.372C64.8715 31.284 64.5755 31.192 64.1995 31.096C63.7115 30.968 63.3155 30.84 63.0115 30.712C62.7075 30.584 62.4475 30.396 62.2315 30.148C62.0235 29.892 61.9195 29.552 61.9195 29.128C61.9195 28.808 62.0155 28.512 62.2075 28.24C62.3995 27.968 62.6715 27.752 63.0235 27.592C63.3755 27.432 63.7755 27.352 64.2235 27.352C64.9275 27.352 65.4955 27.532 65.9275 27.892C66.3595 28.244 66.5915 28.732 66.6235 29.356H65.7835C65.7595 28.972 65.6075 28.664 65.3275 28.432C65.0555 28.192 64.6795 28.072 64.1995 28.072C63.7755 28.072 63.4315 28.172 63.1675 28.372C62.9035 28.572 62.7715 28.82 62.7715 29.116C62.7715 29.372 62.8475 29.584 62.9995 29.752C63.1595 29.912 63.3555 30.04 63.5875 30.136C63.8195 30.224 64.1315 30.324 64.5235 30.436C64.9955 30.564 65.3715 30.688 65.6515 30.808C65.9315 30.928 66.1715 31.104 66.3715 31.336C66.5715 31.568 66.6755 31.876 66.6835 32.26C66.6835 32.612 66.5875 32.928 66.3955 33.208C66.2035 33.48 65.9355 33.696 65.5915 33.856C65.2475 34.016 64.8515 34.096 64.4035 34.096ZM80.1977 27.448L78.1457 34H77.3057L75.4937 28.504L73.6817 34H72.8297L70.7777 27.448H71.6297L73.2617 33.148L75.0977 27.448H75.9377L77.7497 33.16L79.3697 27.448H80.1977ZM81.7628 26.212C81.5948 26.212 81.4508 26.152 81.3308 26.032C81.2108 25.912 81.1508 25.764 81.1508 25.588C81.1508 25.412 81.2108 25.268 81.3308 25.156C81.4508 25.036 81.5948 24.976 81.7628 24.976C81.9308 24.976 82.0748 25.036 82.1948 25.156C82.3148 25.268 82.3748 25.412 82.3748 25.588C82.3748 25.764 82.3148 25.912 82.1948 26.032C82.0748 26.152 81.9308 26.212 81.7628 26.212ZM82.1828 27.448V34H81.3428V27.448H82.1828ZM85.177 28.156V32.224C85.177 32.624 85.253 32.9 85.405 33.052C85.557 33.204 85.825 33.28 86.209 33.28H86.977V34H86.077C85.485 34 85.045 33.864 84.757 33.592C84.469 33.312 84.325 32.856 84.325 32.224V28.156H83.413V27.448H84.325V25.804H85.177V27.448H86.977V28.156H85.177ZM91.4823 27.328C91.9783 27.328 92.4223 27.432 92.8143 27.64C93.2143 27.848 93.5263 28.168 93.7503 28.6C93.9823 29.024 94.0983 29.544 94.0983 30.16V34H93.2703V30.256C93.2703 29.544 93.0903 29 92.7303 28.624C92.3783 28.248 91.8943 28.06 91.2783 28.06C90.6463 28.06 90.1423 28.26 89.7663 28.66C89.3903 29.06 89.2023 29.648 89.2023 30.424V34H88.3623V25.12H89.2023V28.564C89.4103 28.172 89.7143 27.868 90.1143 27.652C90.5223 27.436 90.9783 27.328 91.4823 27.328ZM103.725 34L100.089 30.124V34H99.2491V25.612H100.089V29.536L103.725 25.612H104.793L100.869 29.8L104.829 34H103.725ZM105.685 30.712C105.685 30.04 105.817 29.452 106.081 28.948C106.353 28.436 106.725 28.044 107.197 27.772C107.677 27.492 108.217 27.352 108.817 27.352C109.441 27.352 109.977 27.496 110.425 27.784C110.881 28.072 111.209 28.44 111.409 28.888V27.448H112.249V34H111.409V32.548C111.201 32.996 110.869 33.368 110.413 33.664C109.965 33.952 109.429 34.096 108.805 34.096C108.213 34.096 107.677 33.956 107.197 33.676C106.725 33.396 106.353 33 106.081 32.488C105.817 31.976 105.685 31.384 105.685 30.712ZM111.409 30.724C111.409 30.196 111.301 29.732 111.085 29.332C110.869 28.932 110.573 28.624 110.197 28.408C109.829 28.192 109.421 28.084 108.973 28.084C108.509 28.084 108.093 28.188 107.725 28.396C107.357 28.604 107.065 28.908 106.849 29.308C106.641 29.7 106.537 30.168 106.537 30.712C106.537 31.248 106.641 31.72 106.849 32.128C107.065 32.528 107.357 32.836 107.725 33.052C108.093 33.26 108.509 33.364 108.973 33.364C109.421 33.364 109.829 33.256 110.197 33.04C110.573 32.824 110.869 32.516 111.085 32.116C111.301 31.716 111.409 31.252 111.409 30.724ZM115.259 28.156V32.224C115.259 32.624 115.335 32.9 115.487 33.052C115.639 33.204 115.907 33.28 116.291 33.28H117.059V34H116.159C115.567 34 115.127 33.864 114.839 33.592C114.551 33.312 114.407 32.856 114.407 32.224V28.156H113.495V27.448H114.407V25.804H115.259V27.448H117.059V28.156H115.259ZM118.864 26.212C118.696 26.212 118.552 26.152 118.432 26.032C118.312 25.912 118.252 25.764 118.252 25.588C118.252 25.412 118.312 25.268 118.432 25.156C118.552 25.036 118.696 24.976 118.864 24.976C119.032 24.976 119.176 25.036 119.296 25.156C119.416 25.268 119.476 25.412 119.476 25.588C119.476 25.764 119.416 25.912 119.296 26.032C119.176 26.152 119.032 26.212 118.864 26.212ZM119.284 27.448V34H118.444V27.448H119.284ZM127.115 30.388C127.115 30.676 127.107 30.896 127.091 31.048H121.655C121.679 31.544 121.799 31.968 122.015 32.32C122.231 32.672 122.515 32.94 122.867 33.124C123.219 33.3 123.603 33.388 124.019 33.388C124.563 33.388 125.019 33.256 125.387 32.992C125.763 32.728 126.011 32.372 126.131 31.924H127.019C126.859 32.564 126.515 33.088 125.987 33.496C125.467 33.896 124.811 34.096 124.019 34.096C123.403 34.096 122.851 33.96 122.363 33.688C121.875 33.408 121.491 33.016 121.211 32.512C120.939 32 120.803 31.404 120.803 30.724C120.803 30.044 120.939 29.448 121.211 28.936C121.483 28.424 121.863 28.032 122.351 27.76C122.839 27.488 123.395 27.352 124.019 27.352C124.643 27.352 125.187 27.488 125.651 27.76C126.123 28.032 126.483 28.4 126.731 28.864C126.987 29.32 127.115 29.828 127.115 30.388ZM126.263 30.364C126.271 29.876 126.171 29.46 125.963 29.116C125.763 28.772 125.487 28.512 125.135 28.336C124.783 28.16 124.399 28.072 123.983 28.072C123.359 28.072 122.827 28.272 122.387 28.672C121.947 29.072 121.703 29.636 121.655 30.364H126.263ZM132.484 33.256H136.768V34H131.5V33.328L135.724 26.356H131.572V25.612H136.708V26.284L132.484 33.256ZM137.865 30.712C137.865 30.04 137.997 29.452 138.261 28.948C138.533 28.436 138.905 28.044 139.377 27.772C139.857 27.492 140.397 27.352 140.997 27.352C141.621 27.352 142.157 27.496 142.605 27.784C143.061 28.072 143.389 28.44 143.589 28.888V27.448H144.429V34H143.589V32.548C143.381 32.996 143.049 33.368 142.593 33.664C142.145 33.952 141.609 34.096 140.985 34.096C140.393 34.096 139.857 33.956 139.377 33.676C138.905 33.396 138.533 33 138.261 32.488C137.997 31.976 137.865 31.384 137.865 30.712ZM143.589 30.724C143.589 30.196 143.481 29.732 143.265 29.332C143.049 28.932 142.753 28.624 142.377 28.408C142.009 28.192 141.601 28.084 141.153 28.084C140.689 28.084 140.273 28.188 139.905 28.396C139.537 28.604 139.245 28.908 139.029 29.308C138.821 29.7 138.717 30.168 138.717 30.712C138.717 31.248 138.821 31.72 139.029 32.128C139.245 32.528 139.537 32.836 139.905 33.052C140.273 33.26 140.689 33.364 141.153 33.364C141.601 33.364 142.009 33.256 142.377 33.04C142.753 32.824 143.049 32.516 143.265 32.116C143.481 31.716 143.589 31.252 143.589 30.724ZM148.927 28.156H147.403V34H146.563V28.156H145.651V27.448H146.563V26.992C146.563 26.28 146.743 25.756 147.103 25.42C147.471 25.084 148.063 24.916 148.879 24.916V25.636C148.335 25.636 147.951 25.74 147.727 25.948C147.511 26.156 147.403 26.504 147.403 26.992V27.448H148.927V28.156ZM156.177 30.388C156.177 30.676 156.169 30.896 156.153 31.048H150.717C150.741 31.544 150.861 31.968 151.077 32.32C151.293 32.672 151.577 32.94 151.929 33.124C152.281 33.3 152.665 33.388 153.081 33.388C153.625 33.388 154.081 33.256 154.449 32.992C154.825 32.728 155.073 32.372 155.193 31.924H156.081C155.921 32.564 155.577 33.088 155.049 33.496C154.529 33.896 153.873 34.096 153.081 34.096C152.465 34.096 151.913 33.96 151.425 33.688C150.937 33.408 150.553 33.016 150.273 32.512C150.001 32 149.865 31.404 149.865 30.724C149.865 30.044 150.001 29.448 150.273 28.936C150.545 28.424 150.925 28.032 151.413 27.76C151.901 27.488 152.457 27.352 153.081 27.352C153.705 27.352 154.249 27.488 154.713 27.76C155.185 28.032 155.545 28.4 155.793 28.864C156.049 29.32 156.177 29.828 156.177 30.388ZM155.325 30.364C155.333 29.876 155.233 29.46 155.025 29.116C154.825 28.772 154.549 28.512 154.197 28.336C153.845 28.16 153.461 28.072 153.045 28.072C152.421 28.072 151.889 28.272 151.449 28.672C151.009 29.072 150.765 29.636 150.717 30.364H155.325ZM158.554 28.612C158.738 28.204 159.018 27.888 159.394 27.664C159.778 27.44 160.246 27.328 160.798 27.328V28.204H160.57C159.962 28.204 159.474 28.368 159.106 28.696C158.738 29.024 158.554 29.572 158.554 30.34V34H157.714V27.448H158.554V28.612ZM167.99 30.388C167.99 30.676 167.982 30.896 167.966 31.048H162.53C162.554 31.544 162.674 31.968 162.89 32.32C163.106 32.672 163.39 32.94 163.742 33.124C164.094 33.3 164.478 33.388 164.894 33.388C165.438 33.388 165.894 33.256 166.262 32.992C166.638 32.728 166.886 32.372 167.006 31.924H167.894C167.734 32.564 167.39 33.088 166.862 33.496C166.342 33.896 165.686 34.096 164.894 34.096C164.278 34.096 163.726 33.96 163.238 33.688C162.75 33.408 162.366 33.016 162.086 32.512C161.814 32 161.678 31.404 161.678 30.724C161.678 30.044 161.814 29.448 162.086 28.936C162.358 28.424 162.738 28.032 163.226 27.76C163.714 27.488 164.27 27.352 164.894 27.352C165.518 27.352 166.062 27.488 166.526 27.76C166.998 28.032 167.358 28.4 167.606 28.864C167.862 29.32 167.99 29.828 167.99 30.388ZM167.138 30.364C167.146 29.876 167.046 29.46 166.838 29.116C166.638 28.772 166.362 28.512 166.01 28.336C165.658 28.16 165.274 28.072 164.858 28.072C164.234 28.072 163.702 28.272 163.262 28.672C162.822 29.072 162.578 29.636 162.53 30.364H167.138ZM171.782 34.096C171.03 34.096 170.414 33.924 169.934 33.58C169.462 33.228 169.198 32.752 169.142 32.152H170.006C170.046 32.52 170.218 32.82 170.522 33.052C170.834 33.276 171.25 33.388 171.77 33.388C172.226 33.388 172.582 33.28 172.838 33.064C173.102 32.848 173.234 32.58 173.234 32.26C173.234 32.036 173.162 31.852 173.018 31.708C172.874 31.564 172.69 31.452 172.466 31.372C172.25 31.284 171.954 31.192 171.578 31.096C171.09 30.968 170.694 30.84 170.39 30.712C170.086 30.584 169.826 30.396 169.61 30.148C169.402 29.892 169.298 29.552 169.298 29.128C169.298 28.808 169.394 28.512 169.586 28.24C169.778 27.968 170.05 27.752 170.402 27.592C170.754 27.432 171.154 27.352 171.602 27.352C172.306 27.352 172.874 27.532 173.306 27.892C173.738 28.244 173.97 28.732 174.002 29.356H173.162C173.138 28.972 172.986 28.664 172.706 28.432C172.434 28.192 172.058 28.072 171.578 28.072C171.154 28.072 170.81 28.172 170.546 28.372C170.282 28.572 170.15 28.82 170.15 29.116C170.15 29.372 170.226 29.584 170.378 29.752C170.538 29.912 170.734 30.04 170.966 30.136C171.198 30.224 171.51 30.324 171.902 30.436C172.374 30.564 172.75 30.688 173.03 30.808C173.31 30.928 173.55 31.104 173.75 31.336C173.95 31.568 174.054 31.876 174.062 32.26C174.062 32.612 173.966 32.928 173.774 33.208C173.582 33.48 173.314 33.696 172.97 33.856C172.626 34.016 172.23 34.096 171.782 34.096Z" fill="#222222"/>
<path d="M6 47.624V48.98H2.508V51.128H5.184V52.46H2.508V56H0.828V47.624H6ZM8.87128 50.384C9.08728 50.032 9.36728 49.756 9.71128 49.556C10.0633 49.356 10.4633 49.256 10.9113 49.256V51.02H10.4673C9.93928 51.02 9.53928 51.144 9.26728 51.392C9.00328 51.64 8.87128 52.072 8.87128 52.688V56H7.19128V49.352H8.87128V50.384ZM14.9948 56.108C14.3548 56.108 13.7788 55.968 13.2668 55.688C12.7548 55.4 12.3508 54.996 12.0548 54.476C11.7668 53.956 11.6228 53.356 11.6228 52.676C11.6228 51.996 11.7708 51.396 12.0668 50.876C12.3708 50.356 12.7828 49.956 13.3028 49.676C13.8228 49.388 14.4028 49.244 15.0428 49.244C15.6828 49.244 16.2628 49.388 16.7828 49.676C17.3028 49.956 17.7108 50.356 18.0068 50.876C18.3108 51.396 18.4628 51.996 18.4628 52.676C18.4628 53.356 18.3068 53.956 17.9948 54.476C17.6908 54.996 17.2748 55.4 16.7468 55.688C16.2268 55.968 15.6428 56.108 14.9948 56.108ZM14.9948 54.644C15.2988 54.644 15.5828 54.572 15.8468 54.428C16.1188 54.276 16.3348 54.052 16.4948 53.756C16.6548 53.46 16.7348 53.1 16.7348 52.676C16.7348 52.044 16.5668 51.56 16.2308 51.224C15.9028 50.88 15.4988 50.708 15.0188 50.708C14.5388 50.708 14.1348 50.88 13.8068 51.224C13.4868 51.56 13.3268 52.044 13.3268 52.676C13.3268 53.308 13.4828 53.796 13.7948 54.14C14.1148 54.476 14.5148 54.644 14.9948 54.644ZM27.9512 49.256C28.7672 49.256 29.4232 49.508 29.9192 50.012C30.4232 50.508 30.6752 51.204 30.6752 52.1V56H28.9952V52.328C28.9952 51.808 28.8632 51.412 28.5992 51.14C28.3352 50.86 27.9752 50.72 27.5192 50.72C27.0632 50.72 26.6992 50.86 26.4272 51.14C26.1632 51.412 26.0312 51.808 26.0312 52.328V56H24.3512V52.328C24.3512 51.808 24.2192 51.412 23.9552 51.14C23.6912 50.86 23.3312 50.72 22.8752 50.72C22.4112 50.72 22.0432 50.86 21.7712 51.14C21.5072 51.412 21.3752 51.808 21.3752 52.328V56H19.6952V49.352H21.3752V50.156C21.5912 49.876 21.8672 49.656 22.2032 49.496C22.5472 49.336 22.9232 49.256 23.3312 49.256C23.8512 49.256 24.3152 49.368 24.7232 49.592C25.1312 49.808 25.4472 50.12 25.6712 50.528C25.8872 50.144 26.1992 49.836 26.6072 49.604C27.0232 49.372 27.4712 49.256 27.9512 49.256ZM41.1048 53.588C41.1048 54.004 40.9968 54.396 40.7808 54.764C40.5728 55.124 40.2608 55.424 39.8448 55.664C39.4368 55.896 38.9528 56.032 38.3928 56.072V57.044H37.6248V56.06C36.8248 55.988 36.1808 55.748 35.6928 55.34C35.2048 54.924 34.9528 54.364 34.9368 53.66H36.7368C36.7848 54.236 37.0808 54.584 37.6248 54.704V52.412C37.0488 52.268 36.5848 52.124 36.2328 51.98C35.8808 51.836 35.5768 51.604 35.3208 51.284C35.0648 50.964 34.9368 50.528 34.9368 49.976C34.9368 49.28 35.1848 48.712 35.6808 48.272C36.1848 47.832 36.8328 47.58 37.6248 47.516V46.544H38.3928V47.516C39.1608 47.58 39.7728 47.812 40.2288 48.212C40.6928 48.612 40.9528 49.164 41.0088 49.868H39.1968C39.1728 49.636 39.0888 49.436 38.9448 49.268C38.8088 49.092 38.6248 48.968 38.3928 48.896V51.164C38.9928 51.316 39.4648 51.464 39.8088 51.608C40.1608 51.744 40.4648 51.972 40.7208 52.292C40.9768 52.604 41.1048 53.036 41.1048 53.588ZM36.6888 49.892C36.6888 50.156 36.7688 50.372 36.9288 50.54C37.0888 50.7 37.3208 50.832 37.6248 50.936V48.86C37.3368 48.9 37.1088 49.008 36.9408 49.184C36.7728 49.36 36.6888 49.596 36.6888 49.892ZM38.3928 54.728C38.6968 54.672 38.9328 54.548 39.1008 54.356C39.2768 54.164 39.3648 53.932 39.3648 53.66C39.3648 53.396 39.2808 53.184 39.1128 53.024C38.9448 52.864 38.7048 52.732 38.3928 52.628V54.728ZM42.5843 48.8V47.252H45.4763V56H43.7483V48.8H42.5843ZM47.16 49.556C47.2 48.756 47.48 48.14 48 47.708C48.528 47.268 49.22 47.048 50.076 47.048C50.66 47.048 51.16 47.152 51.576 47.36C51.992 47.56 52.304 47.836 52.512 48.188C52.728 48.532 52.836 48.924 52.836 49.364C52.836 49.868 52.704 50.296 52.44 50.648C52.184 50.992 51.876 51.224 51.516 51.344V51.392C51.98 51.536 52.34 51.792 52.596 52.16C52.86 52.528 52.992 53 52.992 53.576C52.992 54.056 52.88 54.484 52.656 54.86C52.44 55.236 52.116 55.532 51.684 55.748C51.26 55.956 50.748 56.06 50.148 56.06C49.244 56.06 48.508 55.832 47.94 55.376C47.372 54.92 47.072 54.248 47.04 53.36H48.672C48.688 53.752 48.82 54.068 49.068 54.308C49.324 54.54 49.672 54.656 50.112 54.656C50.52 54.656 50.832 54.544 51.048 54.32C51.272 54.088 51.384 53.792 51.384 53.432C51.384 52.952 51.232 52.608 50.928 52.4C50.624 52.192 50.152 52.088 49.512 52.088H49.164V50.708H49.512C50.648 50.708 51.216 50.328 51.216 49.568C51.216 49.224 51.112 48.956 50.904 48.764C50.704 48.572 50.412 48.476 50.028 48.476C49.652 48.476 49.36 48.58 49.152 48.788C48.952 48.988 48.836 49.244 48.804 49.556H47.16ZM58.8556 49.436C58.7756 49.1 58.6356 48.848 58.4356 48.68C58.2436 48.512 57.9636 48.428 57.5956 48.428C57.0436 48.428 56.6356 48.652 56.3716 49.1C56.1156 49.54 55.9836 50.26 55.9756 51.26C56.1676 50.94 56.4476 50.692 56.8156 50.516C57.1836 50.332 57.5836 50.24 58.0156 50.24C58.5356 50.24 58.9956 50.352 59.3956 50.576C59.7956 50.8 60.1076 51.128 60.3316 51.56C60.5556 51.984 60.6676 52.496 60.6676 53.096C60.6676 53.664 60.5516 54.172 60.3196 54.62C60.0956 55.06 59.7636 55.404 59.3236 55.652C58.8836 55.9 58.3596 56.024 57.7516 56.024C56.9196 56.024 56.2636 55.84 55.7836 55.472C55.3116 55.104 54.9796 54.592 54.7876 53.936C54.6036 53.272 54.5116 52.456 54.5116 51.488C54.5116 50.024 54.7636 48.92 55.2676 48.176C55.7716 47.424 56.5676 47.048 57.6556 47.048C58.4956 47.048 59.1476 47.276 59.6116 47.732C60.0756 48.188 60.3436 48.756 60.4156 49.436H58.8556ZM57.6316 51.62C57.2076 51.62 56.8516 51.744 56.5636 51.992C56.2756 52.24 56.1316 52.6 56.1316 53.072C56.1316 53.544 56.2636 53.916 56.5276 54.188C56.7996 54.46 57.1796 54.596 57.6676 54.596C58.0996 54.596 58.4396 54.464 58.6876 54.2C58.9436 53.936 59.0716 53.58 59.0716 53.132C59.0716 52.668 58.9476 52.3 58.6996 52.028C58.4596 51.756 58.1036 51.62 57.6316 51.62ZM68.9108 44.72L65.5988 57.992H64.7708L68.0588 44.72H68.9108ZM74.5966 50.888C74.8046 50.448 75.1326 50.084 75.5806 49.796C76.0366 49.5 76.5766 49.352 77.2006 49.352C77.7926 49.352 78.3246 49.492 78.7966 49.772C79.2766 50.044 79.6486 50.436 79.9126 50.948C80.1846 51.452 80.3206 52.04 80.3206 52.712C80.3206 53.384 80.1846 53.976 79.9126 54.488C79.6486 55 79.2766 55.396 78.7966 55.676C78.3246 55.956 77.7926 56.096 77.2006 56.096C76.5846 56.096 76.0486 55.952 75.5926 55.664C75.1366 55.368 74.8046 55 74.5966 54.56V59.096H73.7686V49.448H74.5966V50.888ZM79.4686 52.712C79.4686 52.168 79.3606 51.7 79.1446 51.308C78.9366 50.908 78.6486 50.604 78.2806 50.396C77.9126 50.188 77.4966 50.084 77.0326 50.084C76.5846 50.084 76.1726 50.192 75.7966 50.408C75.4286 50.624 75.1366 50.932 74.9206 51.332C74.7046 51.732 74.5966 52.196 74.5966 52.724C74.5966 53.252 74.7046 53.716 74.9206 54.116C75.1366 54.516 75.4286 54.824 75.7966 55.04C76.1726 55.256 76.5846 55.364 77.0326 55.364C77.4966 55.364 77.9126 55.26 78.2806 55.052C78.6486 54.836 78.9366 54.528 79.1446 54.128C79.3606 53.72 79.4686 53.248 79.4686 52.712ZM87.7943 52.388C87.7943 52.676 87.7863 52.896 87.7703 53.048H82.3343C82.3583 53.544 82.4783 53.968 82.6943 54.32C82.9103 54.672 83.1943 54.94 83.5463 55.124C83.8983 55.3 84.2823 55.388 84.6983 55.388C85.2423 55.388 85.6983 55.256 86.0663 54.992C86.4423 54.728 86.6903 54.372 86.8103 53.924H87.6983C87.5383 54.564 87.1943 55.088 86.6663 55.496C86.1463 55.896 85.4903 56.096 84.6983 56.096C84.0823 56.096 83.5303 55.96 83.0423 55.688C82.5543 55.408 82.1703 55.016 81.8903 54.512C81.6183 54 81.4823 53.404 81.4823 52.724C81.4823 52.044 81.6183 51.448 81.8903 50.936C82.1623 50.424 82.5423 50.032 83.0303 49.76C83.5183 49.488 84.0743 49.352 84.6983 49.352C85.3223 49.352 85.8663 49.488 86.3303 49.76C86.8023 50.032 87.1623 50.4 87.4103 50.864C87.6663 51.32 87.7943 51.828 87.7943 52.388ZM86.9423 52.364C86.9503 51.876 86.8503 51.46 86.6423 51.116C86.4423 50.772 86.1663 50.512 85.8143 50.336C85.4623 50.16 85.0783 50.072 84.6623 50.072C84.0383 50.072 83.5063 50.272 83.0663 50.672C82.6263 51.072 82.3823 51.636 82.3343 52.364H86.9423ZM90.1711 50.612C90.3551 50.204 90.6351 49.888 91.0111 49.664C91.3951 49.44 91.8631 49.328 92.4151 49.328V50.204H92.1871C91.5791 50.204 91.0911 50.368 90.7231 50.696C90.3551 51.024 90.1711 51.572 90.1711 52.34V56H89.3311V49.448H90.1711V50.612ZM95.9348 56.096C95.1828 56.096 94.5668 55.924 94.0868 55.58C93.6148 55.228 93.3508 54.752 93.2948 54.152H94.1588C94.1988 54.52 94.3708 54.82 94.6748 55.052C94.9868 55.276 95.4028 55.388 95.9228 55.388C96.3788 55.388 96.7348 55.28 96.9908 55.064C97.2548 54.848 97.3868 54.58 97.3868 54.26C97.3868 54.036 97.3148 53.852 97.1708 53.708C97.0268 53.564 96.8428 53.452 96.6188 53.372C96.4028 53.284 96.1068 53.192 95.7308 53.096C95.2428 52.968 94.8468 52.84 94.5428 52.712C94.2388 52.584 93.9788 52.396 93.7628 52.148C93.5548 51.892 93.4508 51.552 93.4508 51.128C93.4508 50.808 93.5468 50.512 93.7388 50.24C93.9308 49.968 94.2028 49.752 94.5548 49.592C94.9068 49.432 95.3068 49.352 95.7548 49.352C96.4588 49.352 97.0268 49.532 97.4588 49.892C97.8908 50.244 98.1228 50.732 98.1548 51.356H97.3148C97.2908 50.972 97.1388 50.664 96.8588 50.432C96.5868 50.192 96.2108 50.072 95.7308 50.072C95.3068 50.072 94.9628 50.172 94.6988 50.372C94.4348 50.572 94.3027 50.82 94.3027 51.116C94.3027 51.372 94.3788 51.584 94.5308 51.752C94.6908 51.912 94.8868 52.04 95.1188 52.136C95.3508 52.224 95.6628 52.324 96.0548 52.436C96.5268 52.564 96.9028 52.688 97.1828 52.808C97.4628 52.928 97.7028 53.104 97.9028 53.336C98.1028 53.568 98.2068 53.876 98.2148 54.26C98.2148 54.612 98.1188 54.928 97.9268 55.208C97.7348 55.48 97.4668 55.696 97.1228 55.856C96.7788 56.016 96.3828 56.096 95.9348 56.096ZM102.664 56.096C102.048 56.096 101.492 55.96 100.996 55.688C100.508 55.408 100.12 55.016 99.8319 54.512C99.5519 54 99.4119 53.404 99.4119 52.724C99.4119 52.044 99.5559 51.452 99.8439 50.948C100.132 50.436 100.524 50.044 101.02 49.772C101.516 49.492 102.072 49.352 102.688 49.352C103.304 49.352 103.86 49.492 104.356 49.772C104.86 50.044 105.252 50.436 105.532 50.948C105.82 51.452 105.964 52.044 105.964 52.724C105.964 53.396 105.82 53.988 105.532 54.5C105.244 55.012 104.848 55.408 104.344 55.688C103.84 55.96 103.28 56.096 102.664 56.096ZM102.664 55.364C103.096 55.364 103.496 55.268 103.864 55.076C104.232 54.876 104.528 54.58 104.752 54.188C104.984 53.788 105.1 53.3 105.1 52.724C105.1 52.148 104.988 51.664 104.764 51.272C104.54 50.872 104.244 50.576 103.876 50.384C103.508 50.184 103.108 50.084 102.676 50.084C102.244 50.084 101.844 50.184 101.476 50.384C101.108 50.576 100.812 50.872 100.588 51.272C100.372 51.664 100.264 52.148 100.264 52.724C100.264 53.3 100.372 53.788 100.588 54.188C100.812 54.58 101.104 54.876 101.464 55.076C101.832 55.268 102.232 55.364 102.664 55.364ZM110.567 49.328C111.351 49.328 111.991 49.572 112.487 50.06C112.983 50.54 113.231 51.24 113.231 52.16V56H112.403V52.256C112.403 51.544 112.223 51 111.863 50.624C111.511 50.248 111.027 50.06 110.411 50.06C109.779 50.06 109.275 50.26 108.899 50.66C108.523 51.06 108.335 51.648 108.335 52.424V56H107.495V49.448H108.335V50.564C108.543 50.164 108.843 49.86 109.235 49.652C109.627 49.436 110.071 49.328 110.567 49.328Z" fill="#222222"/>
<path d="M22.204 4.116H17.812V7.188C18.012 6.908 18.304 6.68 18.688 6.504C19.072 6.32 19.488 6.228 19.936 6.228C20.592 6.228 21.128 6.364 21.544 6.636C21.96 6.9 22.26 7.248 22.444 7.68C22.628 8.104 22.72 8.56 22.72 9.048C22.72 9.608 22.612 10.116 22.396 10.572C22.188 11.02 21.864 11.376 21.424 11.64C20.992 11.904 20.452 12.036 19.804 12.036C18.98 12.036 18.312 11.824 17.8 11.4C17.288 10.968 16.976 10.388 16.864 9.66H17.692C17.796 10.188 18.036 10.596 18.412 10.884C18.788 11.172 19.252 11.316 19.804 11.316C20.5 11.316 21.024 11.112 21.376 10.704C21.736 10.288 21.916 9.74 21.916 9.06C21.916 8.396 21.736 7.88 21.376 7.512C21.016 7.136 20.5 6.948 19.828 6.948C19.364 6.948 18.956 7.056 18.604 7.272C18.252 7.488 17.992 7.78 17.824 8.148H17.032V3.384H22.204V4.116ZM24.5103 12.06C24.3343 12.06 24.1863 12 24.0663 11.88C23.9543 11.76 23.8983 11.612 23.8983 11.436C23.8983 11.26 23.9543 11.116 24.0663 11.004C24.1863 10.884 24.3343 10.824 24.5103 10.824C24.6783 10.824 24.8183 10.884 24.9303 11.004C25.0503 11.116 25.1103 11.26 25.1103 11.436C25.1103 11.612 25.0503 11.76 24.9303 11.88C24.8183 12 24.6783 12.06 24.5103 12.06ZM26.3659 7.62C26.3659 6.244 26.5779 5.176 27.0019 4.416C27.4259 3.656 28.1859 3.276 29.2819 3.276C30.3779 3.276 31.1379 3.656 31.5619 4.416C31.9859 5.176 32.1979 6.244 32.1979 7.62C32.1979 9.02 31.9859 10.104 31.5619 10.872C31.1379 11.64 30.3779 12.024 29.2819 12.024C28.1779 12.024 27.4139 11.64 26.9899 10.872C26.5739 10.104 26.3659 9.02 26.3659 7.62ZM31.3699 7.62C31.3699 6.876 31.3179 6.248 31.2139 5.736C31.1099 5.224 30.9059 4.812 30.6019 4.5C30.2979 4.188 29.8579 4.032 29.2819 4.032C28.7059 4.032 28.2659 4.188 27.9619 4.5C27.6579 4.812 27.4539 5.224 27.3499 5.736C27.2459 6.248 27.1939 6.876 27.1939 7.62C27.1939 8.388 27.2459 9.032 27.3499 9.552C27.4539 10.064 27.6579 10.476 27.9619 10.788C28.2659 11.1 28.7059 11.256 29.2819 11.256C29.8579 11.256 30.2979 11.1 30.6019 10.788C30.9059 10.476 31.1099 10.064 31.2139 9.552C31.3179 9.032 31.3699 8.388 31.3699 7.62Z" fill="#222222"/>
<path d="M39.552 14.232C38.8 13.488 38.208 12.536 37.776 11.376C37.344 10.208 37.128 8.94 37.128 7.572C37.128 6.188 37.352 4.904 37.8 3.72C38.248 2.536 38.876 1.56 39.684 0.792H40.56V0.875999C39.704 1.716 39.052 2.72 38.604 3.888C38.164 5.056 37.944 6.284 37.944 7.572C37.944 8.844 38.156 10.048 38.58 11.184C39.004 12.32 39.624 13.308 40.44 14.148V14.232H39.552ZM46.7631 5.496C46.5871 4.456 45.9831 3.936 44.9511 3.936C44.1671 3.936 43.5791 4.24 43.1871 4.848C42.7951 5.456 42.6151 6.452 42.6471 7.836C42.8071 7.356 43.1111 6.98 43.5591 6.708C44.0151 6.428 44.5351 6.288 45.1191 6.288C45.9591 6.288 46.6231 6.548 47.1111 7.068C47.6071 7.58 47.8551 8.288 47.8551 9.192C47.8551 9.72 47.7511 10.2 47.5431 10.632C47.3431 11.056 47.0311 11.396 46.6071 11.652C46.1911 11.908 45.6711 12.036 45.0471 12.036C43.8551 12.036 43.0311 11.656 42.5751 10.896C42.1271 10.136 41.9031 9.06 41.9031 7.668C41.9031 4.708 42.9191 3.228 44.9511 3.228C45.7191 3.228 46.3231 3.44 46.7631 3.864C47.2031 4.28 47.4631 4.824 47.5431 5.496H46.7631ZM44.9631 7.008C44.5871 7.008 44.2311 7.084 43.8951 7.236C43.5591 7.388 43.2831 7.62 43.0671 7.932C42.8591 8.236 42.7551 8.612 42.7551 9.06C42.7551 9.708 42.9471 10.248 43.3311 10.68C43.7151 11.112 44.2751 11.328 45.0111 11.328C45.6271 11.328 46.1191 11.14 46.4871 10.764C46.8551 10.388 47.0391 9.876 47.0391 9.228C47.0391 8.532 46.8591 7.988 46.4991 7.596C46.1391 7.204 45.6271 7.008 44.9631 7.008ZM49.1859 14.232V14.148C50.0019 13.308 50.6219 12.32 51.0459 11.184C51.4699 10.048 51.6819 8.844 51.6819 7.572C51.6819 6.284 51.4579 5.056 51.0099 3.888C50.5699 2.72 49.9219 1.716 49.0659 0.875999V0.792H49.9419C50.7499 1.56 51.3779 2.536 51.8259 3.72C52.2739 4.904 52.4979 6.188 52.4979 7.572C52.4979 8.94 52.2819 10.208 51.8499 11.376C51.4179 12.536 50.8259 13.488 50.0739 14.232H49.1859Z" fill="#918E9B"/>
<path d="M61.764 3.612V8.892C61.764 9.724 61.96 10.34 62.352 10.74C62.752 11.14 63.296 11.34 63.984 11.34C64.672 11.34 65.208 11.144 65.592 10.752C65.984 10.352 66.18 9.732 66.18 8.892V3.612H67.02V8.88C67.02 9.944 66.736 10.744 66.168 11.28C65.608 11.816 64.876 12.084 63.972 12.084C63.068 12.084 62.332 11.816 61.764 11.28C61.204 10.744 60.924 9.944 60.924 8.88V3.612H61.764ZM71.4376 12.084C70.8856 12.084 70.3976 11.988 69.9736 11.796C69.5576 11.604 69.2296 11.336 68.9896 10.992C68.7496 10.648 68.6216 10.264 68.6056 9.84H69.4936C69.5336 10.248 69.7136 10.608 70.0336 10.92C70.3536 11.224 70.8216 11.376 71.4376 11.376C72.0056 11.376 72.4536 11.232 72.7816 10.944C73.1176 10.648 73.2856 10.276 73.2856 9.828C73.2856 9.468 73.1936 9.18 73.0096 8.964C72.8256 8.74 72.5976 8.576 72.3256 8.472C72.0536 8.36 71.6776 8.24 71.1976 8.112C70.6376 7.96 70.1936 7.812 69.8656 7.668C69.5376 7.524 69.2576 7.3 69.0256 6.996C68.7936 6.692 68.6776 6.28 68.6776 5.76C68.6776 5.328 68.7896 4.944 69.0136 4.608C69.2376 4.264 69.5536 3.996 69.9616 3.804C70.3696 3.612 70.8376 3.516 71.3656 3.516C72.1416 3.516 72.7656 3.708 73.2376 4.092C73.7176 4.468 73.9936 4.956 74.0656 5.556H73.1536C73.0976 5.212 72.9096 4.908 72.5896 4.644C72.2696 4.372 71.8376 4.236 71.2936 4.236C70.7896 4.236 70.3696 4.372 70.0336 4.644C69.6976 4.908 69.5296 5.272 69.5296 5.736C69.5296 6.088 69.6216 6.372 69.8056 6.588C69.9896 6.804 70.2176 6.968 70.4896 7.08C70.7696 7.192 71.1456 7.312 71.6176 7.44C72.1616 7.592 72.6016 7.744 72.9376 7.896C73.2736 8.04 73.5576 8.264 73.7896 8.568C74.0216 8.872 74.1376 9.28 74.1376 9.792C74.1376 10.184 74.0336 10.556 73.8256 10.908C73.6176 11.26 73.3096 11.544 72.9016 11.76C72.4936 11.976 72.0056 12.084 71.4376 12.084ZM80.6208 10.008H76.8048L76.0728 12H75.1848L78.2448 3.72H79.1928L82.2408 12H81.3528L80.6208 10.008ZM80.3688 9.312L78.7128 4.776L77.0568 9.312H80.3688Z" fill="#918E9B"/>
<path d="M6.52447 2.46352C6.67415 2.00287 7.32585 2.00287 7.47553 2.46353L8.45934 5.49139C8.52628 5.6974 8.71826 5.83688 8.93487 5.83688H12.1186C12.6029 5.83688 12.8043 6.45669 12.4124 6.74139L9.83679 8.61271C9.66155 8.74003 9.58822 8.96572 9.65516 9.17173L10.639 12.1996C10.7886 12.6602 10.2614 13.0433 9.86955 12.7586L7.29389 10.8873C7.11865 10.76 6.88135 10.76 6.70611 10.8873L4.13045 12.7586C3.73859 13.0433 3.21136 12.6602 3.36103 12.1996L4.34484 9.17173C4.41178 8.96572 4.33845 8.74003 4.16321 8.61271L1.58755 6.74139C1.1957 6.45669 1.39708 5.83688 1.88145 5.83688H5.06513C5.28174 5.83688 5.47372 5.6974 5.54066 5.49139L6.52447 2.46352Z" fill="#FE395C"/>
<circle cx="57" cy="8" r="1" fill="#918E9B"/>
</svg>
